# xmcd
#
# Track frame offsets:
# 150
# 20279
# 34983
# 54443
# 72767
# 88701
# 111260
# 130941
# 154067
# 174229
#
# Disc length: 2522 seconds
#
# Revision: 2
# Processed by: cddbd v1.5.2PL0 Copyright (c) Steve Scherf et al.
# Submitted via: TinyPlayer 2.8
#
DISCID=7b09d80a
DTITLE=Joanne Shaw Taylor - The Dirty Truth
DYEAR=2014
DGENRE=Blues Rock
TTITLE0=Mud, Honey
TTITLE1=The Dirty Truth
TTITLE2=Wicked Soul
TTITLE3=Fool in Love
TTITLE4=Wrecking Ball
TTITLE5=Tried, Tested and True
TTITLE6=Outlaw Angel
TTITLE7=Shiver and Sigh
TTITLE8=Struck Down
TTITLE9=Feels Like Home
EXTD=Location:  - UPC: 5053760010197 - Catalogue number: AXE 1002 - Label: Axehouse Music Ltd. - ASIN: B00LFX1JOM - Release Date: 2014 09 22 - Discogs: a1557105,m784102,r9036204 - MUSICBRAINZ_ALBUMID: aa19838a-c520-48a3-9632-7b5b0b9d42ba - AMG: mn0001059252,mw
EXTD=0002697
EXTT0=
EXTT1=
EXTT2=
EXTT3=
EXTT4=
EXTT5=
EXTT6=
EXTT7=
EXTT8=
EXTT9=
PLAYORDER=
